<svg width="21" height="20" viewBox="0 0 21 20" fill="none" xmlns="http://www.w3.org/2000/svg">
<path d="M9.4459 0.511644C5.03757 0.990811 1.49174 4.53664 1.01257 8.84914C0.533403 13.3533 3.1209 17.3783 7.05007 18.9116C7.33757 19.0075 7.62507 18.8158 7.62507 18.4325V16.8991C7.62507 16.8991 7.24174 16.995 6.76257 16.995C5.4209 16.995 4.8459 15.845 4.75007 15.1741C4.65424 14.7908 4.46257 14.5033 4.17507 14.2158C3.88757 14.12 3.79174 14.12 3.79174 14.0241C3.79174 13.8325 4.07924 13.8325 4.17507 13.8325C4.75007 13.8325 5.22924 14.5033 5.4209 14.7908C5.90007 15.5575 6.47507 15.7491 6.76257 15.7491C7.1459 15.7491 7.4334 15.6533 7.62507 15.5575C7.7209 14.8866 8.0084 14.2158 8.5834 13.8325C6.37924 13.3533 4.75007 12.1075 4.75007 9.99914C4.75007 8.94498 5.22924 7.89081 5.90007 7.12414C5.80424 6.93248 5.7084 6.45331 5.7084 5.78248C5.7084 5.39914 5.7084 4.82414 5.9959 4.24914C5.9959 4.24914 7.33757 4.24914 8.67924 5.49498C9.1584 5.30331 9.82924 5.20748 10.5001 5.20748C11.1709 5.20748 11.8417 5.30331 12.4167 5.49498C13.6626 4.24914 15.1001 4.24914 15.1001 4.24914C15.2917 4.82414 15.2917 5.39914 15.2917 5.78248C15.2917 6.54914 15.1959 6.93248 15.1001 7.12414C15.7709 7.89081 16.2501 8.84914 16.2501 9.99914C16.2501 12.1075 14.6209 13.3533 12.4167 13.8325C12.9917 14.3116 13.3751 15.1741 13.3751 16.0366V18.5283C13.3751 18.8158 13.6626 19.1033 14.0459 19.0075C17.5917 17.57 20.0834 14.12 20.0834 10.095C20.0834 4.34498 15.1959 -0.15919 9.4459 0.511644Z" fill="#0F0A0A"/>
</svg>
